# xmcd
#
# Track frame offsets:
#	183
#	18165
#	36258
#
# Disc length: 692 seconds
#
# Revision: 0
# Processed by: cddbd v1.5.1PL2 Copyright (c) Steve Scherf et al.
# Submitted via: audiograbber 1.83.01
#
DISCID=1902b203
DTITLE=Engelbrecht - Portofino (remix)
DYEAR=2001
DGENRE=Dream
TTITLE0=Portofino (remix)
TTITLE1=Portofino (instrumental)
TTITLE2=Under the Man in the Moon
EXTD=
EXTT0=
EXTT1=
EXTT2=
PLAYORDER=
